<svg xmlns="http://www.w3.org/2000/svg" xmlns:xlink="http://www.w3.org/1999/xlink" width="616.438" height="519.177" viewBox="0 0 616.438 519.177">
  <defs>
    <linearGradient id="linear-gradient" x1="0.5" y1="1" x2="0.5" gradientUnits="objectBoundingBox">
      <stop offset="0" stop-color="gray" stop-opacity="0.251"/>
      <stop offset="0.54" stop-color="gray" stop-opacity="0.122"/>
      <stop offset="1" stop-color="gray" stop-opacity="0.102"/>
    </linearGradient>
  </defs>
  <g id="Group_16" data-name="Group 16" transform="translate(2667.757 508.277)">
    <g id="Group_8" data-name="Group 8" transform="translate(-2679.757 -508.277)">
      <g id="undraw_coding_6mjf">
        <path id="Path_45" data-name="Path 45" d="M715.01,344.923a289.23,289.23,0,0,1-4.336-39.787h0a53.322,53.322,0,0,0-37.506-48.68c-3.831-1.179-8.048-2.28-12.705-3.269-40.833-8.672-53.236-1.1-54.646-.1a52.353,52.353,0,0,1-3.115-6.743c-.07-.239-.133-.477-.2-.7a52.277,52.277,0,0,0,13.969-31.495c6.812-6.9,10.79-15.246,10.79-24.212a33.235,33.235,0,0,0-8.1-21.224V156.513A53.018,53.018,0,0,0,566.148,103.5h-4.3a53.02,53.02,0,0,0-53.02,53.02v13.141a32.9,32.9,0,0,0-7.331,20.261c0,8.784,3.817,16.95,10.369,23.771A52.282,52.282,0,0,0,526.412,246.2c.287,1.992.582,4.133.871,6.394l-73.035,15.428s-28.162,1.157-46.3,38.588c-15.343,31.7-45.877,113.16-54.92,137.406h0c-1.639,4.392-2.561,6.91-2.561,6.91s.3-.3.87-.82l-.87,2.364s.443-.449,1.284-1.185c-1.277,10.145-1.459,27.565,11.828,29.734,11.148,1.816,39.851,2.567,61.537,2.869h1.5c14.376.19,25.314.19,25.314.19v-.19H685.159V481.5a16.066,16.066,0,0,0-1.284-6.315l.328-.393a12.8,12.8,0,0,1,2.42,5.613,5.616,5.616,0,0,1-.111.589l.141-.357a6.006,6.006,0,0,1-.141,1.9s29.922-77.1,29.6-123.135a77.971,77.971,0,0,0-1.1-14.481ZM528.494,263.014a53.48,53.48,0,0,1-.744-6.651v-.071C528.009,258.468,528.263,260.719,528.494,263.014Zm-90.659,165.6V446.99L426.33,449.45Z" transform="translate(-225.064 -103.5)" fill="url(#linear-gradient)"/>
        <path id="Path_46" data-name="Path 46" d="M481.16,57.57h0a53.02,53.02,0,0,1,53.02,53.02v22.624H428.14V110.59a53.02,53.02,0,0,1,53.02-53.02Z" transform="translate(-143.414 -50.155)" fill="#e14b5a"/>
        <ellipse id="Ellipse_9" data-name="Ellipse 9" cx="60.435" cy="41.528" rx="60.435" ry="41.528" transform="translate(277.682 48.943)" fill="#e14b5a"/>
        <path id="Path_47" data-name="Path 47" d="M597.588,284.269s12.623,66,0,83.8,38.587,24.843,38.587,24.843l53.012-19.279,7.417-47.462S664.329,308,671.021,271.29Z" transform="translate(-298.212 -153.571)" fill="#f7c4a7"/>
        <path id="Path_48" data-name="Path 48" d="M799.7,598.531s3.339,14.459-14.832,17.05a102.745,102.745,0,0,1-32.329-.385L748.53,578.88H790.8Z" transform="translate(-343.854 -245.359)" fill="#f7c4a7"/>
        <path id="Path_49" data-name="Path 49" d="M363.37,571.666s-8.033,32.624,10.145,35.563,84.893,2.967,84.893,2.967V571.609L428.2,578.063l-28.362-27.194Z" transform="translate(-228.391 -237.001)" fill="#f7c4a7"/>
        <path id="Path_50" data-name="Path 50" d="M531.372,318.815l-71.007,15.014s-27.067,1.115-44.495,37.078-55.248,138.675-55.248,138.675,32.273-32.624,70.081,2.225l25.216-45.6-5.564,72.3H645.73V504.392s40.783,21.868,37.818,34.111c0,0,34.9-89.929,27.362-130.8a277.925,277.925,0,0,1-4.167-38.236h0a51.217,51.217,0,0,0-36.047-46.775c-3.675-1.13-7.716-2.189-12.207-3.136-41.9-8.9-52.625,0-52.625,0s-8.117,26.407-7.971,38.377c.182,15.386-21.876,25.586-21.876,25.586s-32.624-7.787-34.111-14.087S528.762,326.23,531.372,318.815Z" transform="translate(-228.096 -166.794)" opacity="0.1"/>
        <path id="Path_51" data-name="Path 51" d="M531.37,316.705l-71.007,15.014S433.3,332.834,415.868,368.8,360.61,507.491,360.61,507.491s32.273-32.624,70.081,2.225l25.216-45.6L450.343,536.4H645.728V502.282s40.779,21.875,37.828,34.111c0,0,34.9-89.929,27.362-130.8a277.962,277.962,0,0,1-4.167-38.236h0A51.217,51.217,0,0,0,670.7,320.584c-3.675-1.13-7.718-2.189-12.207-3.136-41.9-8.9-52.625,0-52.625,0s-8.117,26.407-7.971,38.377c.182,15.386-21.876,25.586-21.876,25.586s-32.624-7.787-34.111-14.087S528.76,324.12,531.37,316.705Z" transform="translate(-228.094 -166.164)" fill="#0e1948"/>
        <path id="Path_52" data-name="Path 52" d="M675.365,302.384a50.185,50.185,0,0,1-1.936-26.324L600,289.033s1.059,5.549,2.259,13.863a50.417,50.417,0,0,0,73.091-.512Z" transform="translate(-299.531 -154.994)" opacity="0.21"/>
        <path id="Path_53" data-name="Path 53" d="M682.376,238.226a50.427,50.427,0,1,1-100.846,1.221v-1.221A50.413,50.413,0,0,1,640.414,188.5h0a50.389,50.389,0,0,1,41.821,46.375Q682.376,236.542,682.376,238.226Z" transform="translate(-294.019 -128.658)" fill="#f7c4a7"/>
        <g id="Group_3" data-name="Group 3" transform="translate(287.511 60.989)" opacity="0.1">
          <path id="Path_54" data-name="Path 54" d="M614.385,193.917l.07-.043a50.385,50.385,0,0,0-32.926,47.308q0,.61,0,1.221a11.226,11.226,0,0,0,4.525-1.087c12.3-5.738,19.645-23.293,22.563-35.536C609.679,201.389,610.662,196.45,614.385,193.917Z" transform="translate(-581.53 -191.454)"/>
          <path id="Path_55" data-name="Path 55" d="M665,194.3a50.012,50.012,0,0,0-12.538-3.866,16.179,16.179,0,0,1,9.005,5.654A23.044,23.044,0,0,1,664.223,201a50.564,50.564,0,0,0-42.411.877c3.164,6.938,12.979,10.72,19.532,13.253q10.763,4.153,21.75,7.6l-6.482-5.262,14.641,2.33a25.362,25.362,0,0,0-1.025-8.63c2.807,2.259,6.525,3.016,9.569,4.918,5.7,3.607,8.082,10.523,11.191,16.522a10.95,10.95,0,0,0,3.266,4.2A50.451,50.451,0,0,0,665,194.3Z" transform="translate(-593.549 -190.43)"/>
        </g>
        <path id="Path_56" data-name="Path 56" d="M614.385,192.283l.07-.043a50.385,50.385,0,0,0-32.926,47.313q0,.61,0,1.221a11.224,11.224,0,0,0,4.525-1.087c12.3-5.738,19.645-23.293,22.563-35.536C609.679,199.789,610.662,194.829,614.385,192.283Z" transform="translate(-294.019 -129.98)" fill="#632652"/>
        <path id="Path_57" data-name="Path 57" d="M665,192.676a50.011,50.011,0,0,0-12.538-3.866,16.179,16.179,0,0,1,9.005,5.654,23.041,23.041,0,0,1,2.758,4.918,50.564,50.564,0,0,0-42.411.877c3.164,6.938,12.979,10.72,19.532,13.253q10.763,4.153,21.75,7.6l-6.482-5.262,14.641,2.33a25.358,25.358,0,0,0-1.025-8.63c2.807,2.259,6.525,3.016,9.569,4.918,5.7,3.607,8.082,10.523,11.191,16.522a10.948,10.948,0,0,0,3.266,4.2A50.451,50.451,0,0,0,665,192.679Z" transform="translate(-306.037 -128.957)" fill="#632652"/>
        <path id="Path_58" data-name="Path 58" d="M573.33,227.408s51.918-64.546,111.981,0l-5.192-14.46s-28.183-41.149-48.2-32.273-39.674,15.2-39.674,15.2Z" transform="translate(-291.573 -126.155)" opacity="0.1"/>
        <path id="Path_59" data-name="Path 59" d="M573.33,225.778s51.918-64.546,111.981,0l-5.192-14.46s-28.183-41.149-48.2-32.273-39.674,15.2-39.674,15.2Z" transform="translate(-291.573 -125.669)" fill="#e14b5a"/>
        <path id="Path_60" data-name="Path 60" d="M508.608,444.38s-11.12,29.663,4.448,56.359-13.717,37.823-13.717,37.823" transform="translate(-269.494 -205.223)" opacity="0.1"/>
        <path id="Path_61" data-name="Path 61" d="M767.188,406.33s19.279,24.471,6.672,46.347S762,527.208,762,527.208" transform="translate(-347.869 -193.869)" opacity="0.1"/>
        <path id="Path_62" data-name="Path 62" d="M331.252,553.3H545.566a17.8,17.8,0,0,1,17.8,17.8H313.46a17.8,17.8,0,0,1,17.792-17.8Z" transform="translate(-109.192 -198.086)" fill="#535461"/>
        <path id="Path_63" data-name="Path 63" d="M358.262,378.89H528.972a27.362,27.362,0,0,1,27.362,27.362V505.33H330.9V406.252A27.362,27.362,0,0,1,358.262,378.89Z" transform="translate(-114.397 -146.039)" fill="#535461"/>
        <path id="Path_64" data-name="Path 64" d="M577.56,194.941s51.02-50.985,106.045-.933" transform="translate(-292.834 -123.94)" fill="none" stroke="#000" stroke-miterlimit="10" stroke-width="1" opacity="0.1"/>
        <rect id="Rectangle_25" data-name="Rectangle 25" width="5.121" height="29.039" transform="translate(398.538 67.753)" fill="#6a5c99"/>
        <path id="Path_65" data-name="Path 65" d="M580.62,170.34h0c12.379,0,22.414-1.439,22.414,17.651v1.136c0,17.542-10.035,17.651-22.414,17.651h0Z" transform="translate(-188.916 -83.799)" fill="#373737"/>
        <rect id="Rectangle_26" data-name="Rectangle 26" width="7.971" height="39.857" rx="2.431" transform="translate(388.287 84.836)" fill="#6a5c99"/>
        <rect id="Rectangle_27" data-name="Rectangle 27" width="5.121" height="29.039" transform="translate(276.432 97.359) rotate(180)" fill="#6a5c99"/>
        <path id="Path_66" data-name="Path 66" d="M0,.139H0c11.723,0,21.227-2.884,21.227,17.651v1.136c0,19.258-9.509,17.651-21.227,17.651H0Z" transform="translate(283.267 123.687) rotate(180)" fill="#373737"/>
        <rect id="Rectangle_28" data-name="Rectangle 28" width="7.971" height="39.857" rx="2.431" transform="translate(286.684 125.255) rotate(180)" fill="#6a5c99"/>
        <path id="Path_67" data-name="Path 67" d="M684.457,141.664c-6.938-14.427-22.052-31.867-54.625-33.262v-.043h-.393l-11.541.548v.056c-32.357,1.487-47.4,18.866-54.317,33.234a74.781,74.781,0,0,0-7.171,31.149l3.985-.1,3.985-.092a67.808,67.808,0,0,1,6.476-27.727c8.784-18.045,24.948-27.635,48.034-28.526h0l10.208-.569h0c23.1.884,39.275,10.492,48.052,28.526a67.811,67.811,0,0,1,6.489,27.74l3.985.092,3.985.1a74.777,74.777,0,0,0-7.156-31.137Z" transform="translate(-286.522 -104.95)" fill="#373737"/>
        <rect id="Rectangle_29" data-name="Rectangle 29" width="543.528" height="145.931" transform="translate(48.462 373.246)" fill="#847272"/>
        <rect id="Rectangle_30" data-name="Rectangle 30" width="543.528" height="18.943" transform="translate(48.462 383.067)" opacity="0.1"/>
        <rect id="Rectangle_31" data-name="Rectangle 31" width="616.438" height="18.943" transform="translate(12 371.141)" fill="#847272"/>
        <line id="Line_8" data-name="Line 8" x2="217.734" y2="111.809" transform="translate(224.09 243.182)" fill="none" stroke="#707070" stroke-width="1"/>
        <line id="Line_9" data-name="Line 9" x1="215.381" y2="111.809" transform="translate(217.029 243.182)" fill="none" stroke="#707070" stroke-width="1"/>
        <rect id="Rectangle_95" data-name="Rectangle 95" width="22.361" height="22.361" transform="translate(328.837 246.202) rotate(45)" fill="#801d1d"/>
        <line id="Line_10" data-name="Line 10" x2="8.238" y2="8.238" transform="translate(320.6 254.951)" fill="none" stroke="#707070" stroke-linecap="round" stroke-width="1"/>
        <line id="Line_11" data-name="Line 11" y1="8.238" x2="8.238" transform="translate(328.837 254.951)" fill="none" stroke="#707070" stroke-linecap="round" stroke-width="1"/>
        <path id="Path_170" data-name="Path 170" d="M268.721,220.122s12.161,18.8,24.853,0" transform="translate(47.549 38.949)" fill="none" stroke="#707070" stroke-width="1"/>
        <line id="Line_12" data-name="Line 12" y2="30.601" transform="translate(328.837 246.713)" fill="none" stroke="#707070" stroke-linecap="round" stroke-width="1"/>
      </g>
      <g id="Group_7" data-name="Group 7" transform="translate(288.282 84.826)">
        <g id="Path_165" data-name="Path 165" transform="translate(0)">
          <path id="Path_1" data-name="Path 1" d="M22.766,4.906c12.574,0,22.766,5.725,22.766,18.3A22.766,22.766,0,1,1,0,23.2C0,10.634,10.194,4.906,22.766,4.906Z" transform="translate(0 -4.906)" fill="none"/>
          <path id="Path_2" data-name="Path 2" d="M22.767,13.1c-4.736,0-8.739,1.016-11.27,2.861C10.08,17,8.2,18.871,8.2,23.2a14.57,14.57,0,0,0,29.139,0c0-4.334-1.883-6.208-3.3-7.241C31.505,14.119,27.5,13.1,22.767,13.1m0-8.2c12.574,0,22.767,5.725,22.767,18.3A22.767,22.767,0,0,1,0,23.2C0,10.631,10.193,4.906,22.767,4.906Z" transform="translate(0 -4.906)" fill="#535050"/>
        </g>
        <g id="Path_166" data-name="Path 166" transform="translate(54.723)">
          <path id="Path_3" data-name="Path 3" d="M22.766,4.906c12.574,0,22.766,5.725,22.766,18.3A22.766,22.766,0,1,1,0,23.2C0,10.634,10.194,4.906,22.766,4.906Z" transform="translate(0 -4.906)" fill="none"/>
          <path id="Path_4" data-name="Path 4" d="M22.767,13.1c-4.736,0-8.739,1.016-11.27,2.861C10.08,17,8.2,18.871,8.2,23.2a14.57,14.57,0,0,0,29.139,0c0-4.334-1.883-6.208-3.3-7.241C31.505,14.119,27.5,13.1,22.767,13.1m0-8.2c12.574,0,22.767,5.725,22.767,18.3A22.767,22.767,0,0,1,0,23.2C0,10.631,10.193,4.906,22.767,4.906Z" transform="translate(0 -4.906)" fill="#535050"/>
        </g>
        <path id="Path_167" data-name="Path 167" d="M-2696.64,662.934a8.4,8.4,0,0,1,5.036-2.807,10.063,10.063,0,0,1,7.554,2.807" transform="translate(2740.395 -642.402)" fill="none" stroke="#535050" stroke-width="3"/>
      </g>
    </g>
  </g>
</svg>
