<svg xmlns="http://www.w3.org/2000/svg" xmlns:xlink="http://www.w3.org/1999/xlink" width="700" height="356.654" viewBox="0 0 700 356.654">
  <defs>
    <linearGradient id="linear-gradient" x1="0.5" y1="1" x2="0.5" gradientUnits="objectBoundingBox">
      <stop offset="0" stop-color="gray" stop-opacity="0.251"/>
      <stop offset="0.54" stop-color="gray" stop-opacity="0.122"/>
      <stop offset="1" stop-color="gray" stop-opacity="0.102"/>
    </linearGradient>
  </defs>
  <g id="Group_16" data-name="Group 16" transform="translate(2698 345.654)">
    <g id="undraw_programming_2svr_1_" data-name="undraw_programming_2svr (1)" transform="translate(-2698 -345.654)">
      <path id="Path_104" data-name="Path 104" d="M698.168,454.961q-1.12,2.414-2.233,4.763-1.738,3.649-3.43,7.157c-.5,1.036-1,2.053-1.493,3.07-5.535,11.308-10.7,21.31-15.093,29.536a47.119,47.119,0,0,1-41.069,24.908l-97.6,1.062h-1.03l-8.367.09-7.157.077-21.947.238h-.888l-11.173.122h-.341l-68.867.747L356,527.375l-7.151.077-44.409.483h-.052l-28.8.309h-.309l-91.072.985-27.244.3a56.683,56.683,0,0,1-17.165-2.459,55.6,55.6,0,0,1-25.159-15.929,128.686,128.686,0,0,1-25.957-44.255q-1.242-3.533-2.317-7.157c-19.83-67.033,4.344-153.515,47.853-211.389q2.735-3.63,5.561-7.08l.045-.051c13.381-16.425,28.383-30.147,44.364-39.9,28.319-17.32,59.7-22.2,90.557-7.659,26.111,12.306,50.492,18.092,74.125,19.662,2.388.154,4.776.27,7.151.341,54.212,1.706,105.019-17.828,164.682-30.437,2.375-.5,4.756-1,7.157-1.467,42.562-8.47,89.778-12.937,145.927-3.546a121.7,121.7,0,0,1,17.223,4.119q3.714,1.2,7.157,2.574c26.8,10.9,41.417,31.048,47.628,56.291q.882,3.514,1.525,7.151C758.333,309.047,726.081,395.176,698.168,454.961Z" transform="translate(-79.351 -172.945)" fill="#47474a" opacity="0.33"/>
      <g id="Group_5" data-name="Group 5" transform="translate(7.015 8.776)" opacity="0.64">
        <path id="Path_105" data-name="Path 105" d="M217.65,217V545l-27.244.3a56.685,56.685,0,0,1-17.165-2.459V256.9h.045C186.666,240.46,201.669,226.738,217.65,217Z" transform="translate(-119.826 -197.421)" fill="#161524"/>
        <path id="Path_106" data-name="Path 106" d="M777.734,286.131H164.6q2.735-3.63,5.561-7.08V279H776.209Q777.091,282.495,777.734,286.131Z" transform="translate(-116.747 -219.517)" fill="#161524"/>
        <path id="Path_107" data-name="Path 107" d="M1036.857,190.07V464.894h-2.233q-1.738,3.649-3.43,7.157c-.5,1.036-1,2.053-1.493,3.07V187.47Q1033.414,188.667,1036.857,190.07Z" transform="translate(-425.055 -186.897)" fill="#161524"/>
        <path id="Path_108" data-name="Path 108" d="M772.247,186.58V530.432l-7.157.077V188.047C767.465,187.545,769.846,187.05,772.247,186.58Z" transform="translate(-330.752 -186.58)" fill="#161524"/>
        <path id="Path_109" data-name="Path 109" d="M505.261,235.961V549.775l-7.151.077V235.62C500.5,235.774,502.886,235.865,505.261,235.961Z" transform="translate(-235.605 -204.057)" fill="#161524"/>
        <path id="Path_110" data-name="Path 110" d="M699.819,618.52q-1.738,3.649-3.43,7.157H92.567q-1.242-3.533-2.317-7.157Z" transform="translate(-90.25 -340.516)" fill="#161524"/>
      </g>
      <g id="Group_6" data-name="Group 6" transform="translate(277.005 118.602)" opacity="0.1">
        <path id="Path_154" data-name="Path 154" d="M552.216,360.013A6.275,6.275,0,0,1,551,357.22a6.107,6.107,0,0,0,.27,2.961A5.792,5.792,0,0,0,552.216,360.013Z" transform="translate(-524.418 -357.22)"/>
        <path id="Path_155" data-name="Path 155" d="M540.1,366.881a22.653,22.653,0,0,1-.238-2.381v2.388Z" transform="translate(-520.474 -359.814)"/>
        <path id="Path_156" data-name="Path 156" d="M621.706,398.576a11.778,11.778,0,0,1,.232-1.706,11.587,11.587,0,0,0,.515-3.019,3.963,3.963,0,0,0-.1-.682c-.109.592-.283,1.184-.412,1.77A12.318,12.318,0,0,0,621.706,398.576Z" transform="translate(-549.627 -370.032)"/>
        <path id="Path_157" data-name="Path 157" d="M600.922,368.863l.7.508a12.679,12.679,0,0,0,1.654-1.429,2.362,2.362,0,0,0,.245-2.343,1.926,1.926,0,0,1-.245.412C602.486,367.029,600.736,367.589,600.922,368.863Z" transform="translate(-542.231 -360.207)"/>
        <path id="Path_158" data-name="Path 158" d="M518.45,380.29a7.931,7.931,0,0,0-.56,1.467,11.689,11.689,0,0,1,3.218-1.216Z" transform="translate(-512.644 -365.442)"/>
        <path id="Path_159" data-name="Path 159" d="M531.877,368.972a9.546,9.546,0,0,1-1.21-.792,2.737,2.737,0,0,0,.058.759,7.633,7.633,0,0,1,1.152.032Z" transform="translate(-517.196 -361.126)"/>
        <path id="Path_161" data-name="Path 161" d="M510.313,421.367V421.3a9.01,9.01,0,0,0-.3-3.379,17.12,17.12,0,0,1-.251-2.137,17.6,17.6,0,0,0,.251,4.068C510.12,420.35,510.235,420.858,510.313,421.367Z" transform="translate(-509.74 -378.09)"/>
        <path id="Path_162" data-name="Path 162" d="M512.43,397.894a17.856,17.856,0,0,1,1.68-2.362c-1.178,1.126-3.353.122-3.81-1.442a3.752,3.752,0,0,0,0,1.931A2.826,2.826,0,0,0,512.43,397.894Z" transform="translate(-509.894 -370.36)"/>
      </g>
    </g>
    <g id="Group_8" data-name="Group 8" transform="translate(-2550.757 -305.787)">
      <g id="undraw_coding_6mjf">
        <path id="Path_45" data-name="Path 45" d="M572.829,250.763a176.42,176.42,0,0,1-2.645-24.269h0A32.525,32.525,0,0,0,547.306,196.8c-2.337-.719-4.909-1.391-7.75-1.994-24.907-5.29-32.473-.672-33.333-.064a31.928,31.928,0,0,1-1.9-4.113c-.043-.146-.081-.291-.124-.428a31.887,31.887,0,0,0,8.521-19.211c4.155-4.211,6.582-9.3,6.582-14.769a20.273,20.273,0,0,0-4.943-12.946v-7.438A32.341,32.341,0,0,0,482.022,103.5H479.4a32.341,32.341,0,0,0-32.341,32.341v8.016a20.066,20.066,0,0,0-4.472,12.359c0,5.358,2.328,10.339,6.325,14.5a31.891,31.891,0,0,0,8.876,19.831c.175,1.215.355,2.521.531,3.9l-44.55,9.411s-17.178.706-28.245,23.538c-9.359,19.339-27.984,69.025-33.5,83.815h0c-1,2.679-1.562,4.215-1.562,4.215s.184-.184.531-.5l-.531,1.442s.27-.274.783-.723c-.779,6.188-.89,16.814,7.215,18.137,6.8,1.108,24.308,1.566,37.536,1.75h.916c8.769.116,15.441.116,15.441.116v-.116H554.62v-1.459a9.8,9.8,0,0,0-.783-3.852l.2-.24a7.81,7.81,0,0,1,1.476,3.424,3.425,3.425,0,0,1-.068.359l.086-.218a3.666,3.666,0,0,1-.086,1.16s18.252-47.028,18.055-75.11A47.564,47.564,0,0,0,572.829,250.763ZM459.058,200.8a32.621,32.621,0,0,1-.454-4.057V196.7C458.762,198.027,458.917,199.4,459.058,200.8Zm-55.3,101.014v11.208l-7.018,1.5Z" transform="translate(-273.972 -103.5)" fill="url(#linear-gradient)"/>
        <path id="Path_46" data-name="Path 46" d="M460.481,57.57h0a32.341,32.341,0,0,1,32.341,32.341v13.8H428.14v-13.8A32.341,32.341,0,0,1,460.481,57.57Z" transform="translate(-254.463 -53.047)" fill="#e14b5a"/>
        <ellipse id="Ellipse_9" data-name="Ellipse 9" cx="36.864" cy="25.331" rx="36.864" ry="25.331" transform="translate(169.38 29.854)" fill="#e14b5a"/>
        <path id="Path_47" data-name="Path 47" d="M596.807,279.207s7.7,40.258,0,51.115,23.537,15.154,23.537,15.154l32.336-11.76,4.524-28.951S637.518,293.681,641.6,271.29Z" transform="translate(-414.194 -199.484)" fill="#f7c4a7"/>
        <path id="Path_48" data-name="Path 48" d="M779.741,590.867s2.037,8.82-9.047,10.4a62.673,62.673,0,0,1-19.72-.235L748.53,578.88h25.784Z" transform="translate(-501.686 -375.439)" fill="#f7c4a7"/>
        <path id="Path_49" data-name="Path 49" d="M362.68,563.555s-4.9,19.9,6.188,21.693,51.783,1.81,51.783,1.81V563.52l-18.428,3.937-17.3-16.588Z" transform="translate(-280.346 -359.416)" fill="#f7c4a7"/>
        <path id="Path_50" data-name="Path 50" d="M464.776,317.563l-43.313,9.158s-16.51.68-27.141,22.617-33.7,84.589-33.7,84.589,19.686-19.9,42.748,1.357l15.381-27.817-3.394,44.1H534.532V430.761S559.409,444.1,557.6,451.568c0,0,21.291-54.855,16.69-79.784a169.53,169.53,0,0,1-2.542-23.323h0a31.241,31.241,0,0,0-21.988-28.532c-2.242-.689-4.707-1.335-7.446-1.913-25.557-5.426-32.1,0-32.1,0s-4.951,16.108-4.862,23.409c.111,9.385-13.344,15.607-13.344,15.607s-19.9-4.75-20.807-8.593S463.184,322.086,464.776,317.563Z" transform="translate(-279.784 -224.833)" opacity="0.1"/>
        <path id="Path_51" data-name="Path 51" d="M464.77,315.453l-43.313,9.158s-16.51.68-27.141,22.617-33.706,84.6-33.706,84.6,19.686-19.9,42.748,1.357l15.381-27.817-3.394,44.092H534.526V428.651S559.4,441.994,557.6,449.458c0,0,21.291-54.855,16.69-79.784a169.559,169.559,0,0,1-2.542-23.323h0a31.241,31.241,0,0,0-21.988-28.532c-2.242-.689-4.708-1.335-7.446-1.913-25.557-5.426-32.1,0-32.1,0s-4.951,16.108-4.862,23.409c.111,9.385-13.344,15.607-13.344,15.607s-19.9-4.75-20.807-8.593S463.178,319.976,464.77,315.453Z" transform="translate(-279.778 -223.626)" fill="#0e1948"/>
        <path id="Path_52" data-name="Path 52" d="M645.971,292.117a30.612,30.612,0,0,1-1.181-16.057L600,283.973s.646,3.385,1.378,8.456a30.753,30.753,0,0,0,44.584-.312Z" transform="translate(-416.72 -202.212)" opacity="0.21"/>
        <path id="Path_53" data-name="Path 53" d="M643.044,218.554a30.759,30.759,0,1,1-61.514.745c0-.248,0-.5,0-.745a30.751,30.751,0,0,1,35.918-30.329h0a30.736,30.736,0,0,1,25.51,28.288Q643.044,217.527,643.044,218.554Z" transform="translate(-406.154 -151.72)" fill="#f7c4a7"/>
        <g id="Group_3" data-name="Group 3" transform="translate(175.376 37.202)" opacity="0.1">
          <path id="Path_54" data-name="Path 54" d="M601.571,193.9l.043-.026a30.734,30.734,0,0,0-20.084,28.857q0,.372,0,.745a6.848,6.848,0,0,0,2.76-.663c7.5-3.5,11.983-14.208,13.763-21.676C598.7,198.458,599.3,195.445,601.571,193.9Z" transform="translate(-581.53 -192.398)"/>
          <path id="Path_55" data-name="Path 55" d="M648.155,192.788a30.506,30.506,0,0,0-7.648-2.358A9.869,9.869,0,0,1,646,193.879a14.059,14.059,0,0,1,1.682,3,30.843,30.843,0,0,0-25.87.535c1.93,4.232,7.917,6.539,11.914,8.084q6.565,2.533,13.267,4.635l-3.954-3.21,8.931,1.421a15.473,15.473,0,0,0-.625-5.264c1.712,1.378,3.98,1.84,5.837,3,3.479,2.2,4.93,6.419,6.826,10.078A6.679,6.679,0,0,0,666,218.718a30.774,30.774,0,0,0-17.846-25.93Z" transform="translate(-604.572 -190.43)"/>
        </g>
        <path id="Path_56" data-name="Path 56" d="M601.571,192.266l.043-.026A30.734,30.734,0,0,0,581.53,221.1q0,.372,0,.745a6.847,6.847,0,0,0,2.76-.663c7.5-3.5,11.983-14.208,13.763-21.676C598.7,196.845,599.3,193.819,601.571,192.266Z" transform="translate(-406.154 -154.263)" fill="#632652"/>
        <path id="Path_57" data-name="Path 57" d="M648.155,191.168a30.506,30.506,0,0,0-7.648-2.358A9.869,9.869,0,0,1,646,192.259a14.059,14.059,0,0,1,1.682,3,30.843,30.843,0,0,0-25.87.535c1.93,4.232,7.917,6.539,11.914,8.084q6.565,2.533,13.267,4.635l-3.954-3.21,8.931,1.421a15.472,15.472,0,0,0-.625-5.264c1.712,1.378,3.98,1.84,5.837,3,3.479,2.2,4.93,6.419,6.826,10.078A6.679,6.679,0,0,0,666,217.1a30.774,30.774,0,0,0-17.846-25.93Z" transform="translate(-429.196 -152.301)" fill="#632652"/>
        <path id="Path_58" data-name="Path 58" d="M573.33,208.692s31.669-39.372,68.306,0l-3.167-8.82s-17.191-25.1-29.4-19.686-24.2,9.274-24.2,9.274Z" transform="translate(-401.464 -146.93)" opacity="0.1"/>
        <path id="Path_59" data-name="Path 59" d="M573.33,207.062s31.669-39.372,68.306,0l-3.167-8.82s-17.191-25.1-29.4-19.686-24.2,9.274-24.2,9.274Z" transform="translate(-401.464 -145.998)" fill="#e14b5a"/>
        <path id="Path_60" data-name="Path 60" d="M504.993,444.38s-6.783,18.094,2.713,34.378-8.367,23.071-8.367,23.071" transform="translate(-359.138 -298.499)" opacity="0.1"/>
        <path id="Path_61" data-name="Path 61" d="M765.16,406.33s11.76,14.927,4.07,28.271-7.237,45.462-7.237,45.462" transform="translate(-509.384 -276.733)" opacity="0.1"/>
        <path id="Path_62" data-name="Path 62" d="M324.313,553.3H455.04A10.857,10.857,0,0,1,465.9,564.157H313.46A10.857,10.857,0,0,1,324.313,553.3Z" transform="translate(-188.861 -336.627)" fill="#535461"/>
        <path id="Path_63" data-name="Path 63" d="M347.59,378.89H451.72a16.69,16.69,0,0,1,16.69,16.69v60.436H330.9V395.58A16.69,16.69,0,0,1,347.59,378.89Z" transform="translate(-198.838 -236.856)" fill="#535461"/>
        <path id="Path_64" data-name="Path 64" d="M577.56,185.994s31.121-31.1,64.685-.569" transform="translate(-403.883 -142.685)" fill="none" stroke="#000" stroke-miterlimit="10" stroke-width="1" opacity="0.1"/>
        <rect id="Rectangle_25" data-name="Rectangle 25" width="3.124" height="17.713" transform="translate(243.1 41.328)" fill="#6a5c99"/>
        <path id="Path_65" data-name="Path 65" d="M580.62,170.33h0c7.551,0,13.672-.878,13.672,10.767v.693c0,10.7-6.121,10.767-13.672,10.767h0Z" transform="translate(-341.689 -117.542)" fill="#373737"/>
        <rect id="Rectangle_26" data-name="Rectangle 26" width="4.862" height="24.312" rx="2.431" transform="translate(236.847 51.748)" fill="#6a5c99"/>
        <rect id="Rectangle_27" data-name="Rectangle 27" width="3.124" height="17.713" transform="translate(168.618 59.387) rotate(180)" fill="#6a5c99"/>
        <path id="Path_66" data-name="Path 66" d="M0,.085H0c7.151,0,12.948-1.759,12.948,10.767v.693c0,11.747-5.8,10.767-12.948,10.767H0Z" transform="translate(172.787 75.447) rotate(180)" fill="#373737"/>
        <rect id="Rectangle_28" data-name="Rectangle 28" width="4.862" height="24.312" rx="2.431" transform="translate(174.871 76.403) rotate(180)" fill="#6a5c99"/>
        <path id="Path_67" data-name="Path 67" d="M634.516,128.675c-4.232-8.8-13.451-19.438-33.32-20.289v-.026h-.24l-7.04.334v.034C574.179,109.635,565,120.236,560.784,129a45.615,45.615,0,0,0-4.374,19l2.431-.06,2.431-.056a41.362,41.362,0,0,1,3.95-16.913c5.358-11.007,15.218-16.857,29.3-17.4h0l6.227-.347h0c14.093.539,23.957,6.4,29.311,17.4a41.362,41.362,0,0,1,3.958,16.921l2.431.056,2.431.06a45.615,45.615,0,0,0-4.365-18.993Z" transform="translate(-391.784 -106.28)" fill="#373737"/>
        <rect id="Rectangle_29" data-name="Rectangle 29" width="331.541" height="89.015" transform="translate(22.241 227.672)" fill="#847272"/>
        <rect id="Rectangle_30" data-name="Rectangle 30" width="331.541" height="11.555" transform="translate(22.241 233.663)" opacity="0.1"/>
        <rect id="Rectangle_31" data-name="Rectangle 31" width="376.014" height="11.555" transform="translate(0 226.388)" fill="#847272"/>
        <line id="Line_8" data-name="Line 8" x2="132.813" y2="68.201" transform="translate(136.69 148.336)" fill="none" stroke="#707070" stroke-width="1"/>
        <line id="Line_9" data-name="Line 9" x1="131.378" y2="68.201" transform="translate(132.383 148.336)" fill="none" stroke="#707070" stroke-width="1"/>
        <rect id="Rectangle_95" data-name="Rectangle 95" width="13.64" height="13.64" transform="translate(200.584 150.178) rotate(45)" fill="#801d1d"/>
        <line id="Line_10" data-name="Line 10" x2="5.025" y2="5.025" transform="translate(195.559 155.515)" fill="none" stroke="#707070" stroke-linecap="round" stroke-width="1"/>
        <line id="Line_11" data-name="Line 11" y1="5.025" x2="5.025" transform="translate(200.584 155.515)" fill="none" stroke="#707070" stroke-linecap="round" stroke-width="1"/>
        <path id="Path_170" data-name="Path 170" d="M268.721,220.122s7.418,11.47,15.16,0" transform="translate(-75.803 -62.094)" fill="none" stroke="#707070" stroke-width="1"/>
        <line id="Line_12" data-name="Line 12" y2="18.666" transform="translate(200.584 150.49)" fill="none" stroke="#707070" stroke-linecap="round" stroke-width="1"/>
      </g>
      <g id="Group_7" data-name="Group 7" transform="translate(175.846 51.742)">
        <g id="Path_165" data-name="Path 165" transform="translate(0 -4.906)" fill="none">
          <path d="M13.887,4.906c7.67,0,13.887,3.492,13.887,11.162A13.887,13.887,0,1,1,0,16.068C0,8.4,6.218,4.906,13.887,4.906Z" stroke="none"/>
          <path d="M 13.88720607757568 9.906009674072266 C 10.99823570251465 9.906009674072266 8.556797027587891 10.52587890625 7.012615203857422 11.65141868591309 C 6.148626327514648 12.28117942810059 4.999996185302734 13.42416954040527 4.999996185302734 16.06797981262207 C 4.999996185302734 20.96839904785156 8.986785888671875 24.9551887512207 13.88720607757568 24.9551887512207 C 18.78762626647949 24.9551887512207 22.77441596984863 20.96839904785156 22.77441596984863 16.06797981262207 C 22.77441596984863 13.42416954040527 21.62578582763672 12.28117942810059 20.76179504394531 11.65141868591309 C 19.21761703491211 10.52587890625 16.77617645263672 9.906009674072266 13.88720607757568 9.906009674072266 M 13.88720607757568 4.906009674072266 C 21.5568962097168 4.906009674072266 27.77441596984863 8.398288726806641 27.77441596984863 16.06797981262207 C 27.77441596984863 23.73767852783203 21.5568962097168 29.9551887512207 13.88720607757568 29.9551887512207 C 6.21751594543457 29.9551887512207 -3.814697265625e-06 23.73767852783203 -3.814697265625e-06 16.06797981262207 C -3.814697265625e-06 8.398288726806641 6.21751594543457 4.906009674072266 13.88720607757568 4.906009674072266 Z" stroke="none" fill="#535050"/>
        </g>
        <g id="Path_166" data-name="Path 166" transform="translate(33.38 -4.906)" fill="none">
          <path d="M13.887,4.906c7.67,0,13.887,3.492,13.887,11.162A13.887,13.887,0,1,1,0,16.068C0,8.4,6.218,4.906,13.887,4.906Z" stroke="none"/>
          <path d="M 13.88720607757568 9.906009674072266 C 10.99823570251465 9.906009674072266 8.556797027587891 10.52587890625 7.012615203857422 11.65141868591309 C 6.148626327514648 12.28117942810059 4.999996185302734 13.42416954040527 4.999996185302734 16.06797981262207 C 4.999996185302734 20.96839904785156 8.986785888671875 24.9551887512207 13.88720607757568 24.9551887512207 C 18.78762626647949 24.9551887512207 22.77441596984863 20.96839904785156 22.77441596984863 16.06797981262207 C 22.77441596984863 13.42416954040527 21.62578582763672 12.28117942810059 20.76179504394531 11.65141868591309 C 19.21761703491211 10.52587890625 16.77617645263672 9.906009674072266 13.88720607757568 9.906009674072266 M 13.88720607757568 4.906009674072266 C 21.5568962097168 4.906009674072266 27.77441596984863 8.398288726806641 27.77441596984863 16.06797981262207 C 27.77441596984863 23.73767852783203 21.5568962097168 29.9551887512207 13.88720607757568 29.9551887512207 C 6.21751594543457 29.9551887512207 -3.814697265625e-06 23.73767852783203 -3.814697265625e-06 16.06797981262207 C -3.814697265625e-06 8.398288726806641 6.21751594543457 4.906009674072266 13.88720607757568 4.906009674072266 Z" stroke="none" fill="#535050"/>
        </g>
        <path id="Path_167" data-name="Path 167" d="M-2696.643,661.833a5.124,5.124,0,0,1,3.072-1.712,6.138,6.138,0,0,1,4.608,1.712" transform="translate(2723.329 -649.309)" fill="none" stroke="#535050" stroke-width="3"/>
      </g>
    </g>
    <g id="Group_15" data-name="Group 15" transform="translate(-2660.669 -341.595)">
      <g id="Rectangle_48" data-name="Rectangle 48" transform="translate(-0.331 -0.405)" fill="#fff" stroke="#000" stroke-width="1">
        <rect width="221" height="145" rx="10" stroke="none"/>
        <rect x="0.5" y="0.5" width="220" height="144" rx="9.5" fill="none"/>
      </g>
      <line id="Line_1" data-name="Line 1" x2="219.681" transform="translate(0.359 11.128)" fill="none" stroke="#000" stroke-width="1"/>
      <line id="Line_2" data-name="Line 2" x2="6.461" transform="translate(179.119 6.102)" fill="none" stroke="#707070" stroke-width="1"/>
      <g id="Rectangle_49" data-name="Rectangle 49" transform="translate(190.669 2.595)" fill="none" stroke="#707070" stroke-width="1">
        <rect width="7" height="6" rx="2" stroke="none"/>
        <rect x="0.5" y="0.5" width="6" height="5" rx="1.5" fill="none"/>
      </g>
      <g id="Group_9" data-name="Group 9" transform="translate(205.681 3.949)">
        <line id="Line_3" data-name="Line 3" x2="4.307" y2="4.307" transform="translate(0 0)" fill="none" stroke="#707070" stroke-width="1"/>
        <line id="Line_4" data-name="Line 4" y1="4.307" x2="4.307" transform="translate(0 0)" fill="none" stroke="#707070" stroke-width="1"/>
      </g>
      <g id="Group_10" data-name="Group 10" transform="translate(16.512 30.152)">
        <g id="Rectangle_50" data-name="Rectangle 50" transform="translate(0.157 0.443)" fill="none" stroke="#707070" stroke-width="1">
          <rect width="49" height="32" rx="3" stroke="none"/>
          <rect x="0.5" y="0.5" width="48" height="31" rx="2.5" fill="none"/>
        </g>
        <rect id="Rectangle_51" data-name="Rectangle 51" width="41" height="6" transform="translate(0.157 40.443)" fill="#b4ceba"/>
        <rect id="Rectangle_52" data-name="Rectangle 52" width="47" height="6" transform="translate(0.157 52.443)" fill="#bab1f2"/>
        <rect id="Rectangle_53" data-name="Rectangle 53" width="34" height="6" transform="translate(0.157 64.443)" fill="#f2b1d0"/>
        <rect id="Rectangle_54" data-name="Rectangle 54" width="43" height="6" transform="translate(0.157 76.443)" fill="#f2b1b1"/>
        <rect id="Rectangle_55" data-name="Rectangle 55" width="26" height="5" transform="translate(0.157 89.443)" fill="#c9d596"/>
      </g>
      <g id="Group_11" data-name="Group 11" transform="translate(86.149 30.152)">
        <g id="Rectangle_56" data-name="Rectangle 56" transform="translate(-0.481 63.443)" fill="none" stroke="#707070" stroke-width="1">
          <rect width="49" height="33" rx="3" stroke="none"/>
          <rect x="0.5" y="0.5" width="48" height="32" rx="2.5" fill="none"/>
        </g>
        <rect id="Rectangle_57" data-name="Rectangle 57" width="41" height="6" transform="translate(-0.481 49.443)" fill="#bab1f2"/>
        <rect id="Rectangle_58" data-name="Rectangle 58" width="28" height="6" transform="translate(-0.481 37.443)" fill="#b4ceba"/>
        <rect id="Rectangle_59" data-name="Rectangle 59" width="38" height="5" transform="translate(-0.481 25.443)" fill="#f2b1b1"/>
        <rect id="Rectangle_60" data-name="Rectangle 60" width="34" height="6" transform="translate(-0.481 12.443)" fill="#c9d596"/>
        <rect id="Rectangle_61" data-name="Rectangle 61" width="26" height="5" transform="translate(-0.481 0.443)" fill="#f2b1d0"/>
      </g>
      <g id="Group_12" data-name="Group 12" transform="translate(155.787 30.152)">
        <g id="Rectangle_56-2" data-name="Rectangle 56" transform="translate(-0.118 0.443)" fill="none" stroke="#707070" stroke-width="1">
          <rect width="49" height="32" rx="3" stroke="none"/>
          <rect x="0.5" y="0.5" width="48" height="31" rx="2.5" fill="none"/>
        </g>
        <rect id="Rectangle_57-2" data-name="Rectangle 57" width="41" height="6" transform="translate(-0.118 38.443)" fill="#bab1f2"/>
        <rect id="Rectangle_58-2" data-name="Rectangle 58" width="28" height="6" transform="translate(-0.118 50.443)" fill="#b4ceba"/>
        <rect id="Rectangle_59-2" data-name="Rectangle 59" width="37" height="6" transform="translate(-0.118 62.443)" fill="#f2b1b1"/>
        <rect id="Rectangle_60-2" data-name="Rectangle 60" width="34" height="5" transform="translate(-0.118 74.443)" fill="#c9d596"/>
        <rect id="Rectangle_61-2" data-name="Rectangle 61" width="26" height="5" transform="translate(-0.118 86.443)" fill="#f2b1d0"/>
      </g>
    </g>
    <g id="Group_14" data-name="Group 14" transform="translate(-2218.436 -292.777)">
      <g id="Rectangle_62" data-name="Rectangle 62" transform="translate(0.436 -0.223)" fill="#828282" stroke="#000" stroke-width="1">
        <rect width="220" height="145" rx="10" stroke="none"/>
        <rect x="0.5" y="0.5" width="219" height="144" rx="9.5" fill="none"/>
      </g>
      <line id="Line_5" data-name="Line 5" x2="219.681" transform="translate(0.359 11.128)" fill="none" stroke="#000" stroke-width="1"/>
      <line id="Line_6" data-name="Line 6" x2="6.461" transform="translate(179.119 6.102)" fill="none" stroke="#000" stroke-width="1"/>
      <g id="Rectangle_63" data-name="Rectangle 63" transform="translate(191.436 2.777)" fill="none" stroke="#000" stroke-width="1">
        <rect width="6" height="6" rx="2" stroke="none"/>
        <rect x="0.5" y="0.5" width="5" height="5" rx="1.5" fill="none"/>
      </g>
      <g id="Group_13" data-name="Group 13" transform="translate(204.963 3.231)">
        <line id="Line_3-2" data-name="Line 3" x2="4.307" y2="4.307" transform="translate(0 0)" fill="none" stroke="#000" stroke-width="1"/>
        <line id="Line_4-2" data-name="Line 4" y1="4.307" x2="4.307" transform="translate(0 0)" fill="none" stroke="#000" stroke-width="1"/>
      </g>
      <line id="Line_7" data-name="Line 7" y2="133.531" transform="translate(45.587 11.128)" fill="none" stroke="#000" stroke-width="1"/>
      <rect id="Rectangle_64" data-name="Rectangle 64" width="34" height="6" transform="translate(5.436 33.777)" fill="#373232"/>
      <rect id="Rectangle_65" data-name="Rectangle 65" width="28" height="6" transform="translate(5.436 43.777)" fill="#15213d"/>
      <rect id="Rectangle_66" data-name="Rectangle 66" width="28" height="6" transform="translate(5.436 53.777)" fill="#15213d"/>
      <rect id="Rectangle_67" data-name="Rectangle 67" width="31" height="6" transform="translate(5.436 63.777)" fill="#15213d"/>
      <rect id="Rectangle_68" data-name="Rectangle 68" width="30" height="6" transform="translate(5.436 73.777)" fill="#15213d"/>
      <rect id="Rectangle_69" data-name="Rectangle 69" width="26" height="6" transform="translate(5.436 83.777)" fill="#3d1531"/>
      <rect id="Rectangle_70" data-name="Rectangle 70" width="28" height="6" transform="translate(5.436 93.777)" fill="#3d1531"/>
      <rect id="Rectangle_71" data-name="Rectangle 71" width="30" height="6" transform="translate(53.436 19.777)" fill="#1b2904"/>
      <rect id="Rectangle_72" data-name="Rectangle 72" width="23" height="6" transform="translate(53.436 30.777)" fill="#201e67"/>
      <rect id="Rectangle_73" data-name="Rectangle 73" width="23" height="6" transform="translate(53.436 41.777)" fill="#201e67"/>
      <rect id="Rectangle_74" data-name="Rectangle 74" width="29" height="6" transform="translate(81.436 30.777)" fill="#1b2904"/>
      <rect id="Rectangle_75" data-name="Rectangle 75" width="25" height="6" transform="translate(81.436 41.777)" fill="#1b2904"/>
      <rect id="Rectangle_76" data-name="Rectangle 76" width="16" height="5" transform="translate(53.436 52.777)" fill="#373737"/>
      <rect id="Rectangle_77" data-name="Rectangle 77" width="16" height="6" transform="translate(65.436 62.777)" fill="#373737"/>
      <rect id="Rectangle_78" data-name="Rectangle 78" width="16" height="5" transform="translate(73.436 52.777)" fill="#1c4b18"/>
      <rect id="Rectangle_79" data-name="Rectangle 79" width="26" height="5" transform="translate(92.436 52.777)" fill="#1c4b18"/>
      <rect id="Rectangle_80" data-name="Rectangle 80" width="19" height="6" transform="translate(85.436 62.777)" fill="#1c4b18"/>
      <rect id="Rectangle_81" data-name="Rectangle 81" width="25" height="6" transform="translate(109.436 62.777)" fill="#1b2904"/>
      <rect id="Rectangle_82" data-name="Rectangle 82" width="14" height="6" transform="translate(65.436 73.777)" fill="#201e67"/>
      <rect id="Rectangle_83" data-name="Rectangle 83" width="19" height="6" transform="translate(83.436 73.777)" fill="#1b2904"/>
      <rect id="Rectangle_84" data-name="Rectangle 84" width="25" height="6" transform="translate(65.436 84.777)" fill="#1b2904"/>
      <rect id="Rectangle_85" data-name="Rectangle 85" width="25" height="6" transform="translate(95.436 84.777)" fill="#4b5043"/>
      <rect id="Rectangle_86" data-name="Rectangle 86" width="20" height="5" transform="translate(65.436 95.777)" fill="#4b5043"/>
      <rect id="Rectangle_87" data-name="Rectangle 87" width="26" height="5" transform="translate(90.436 95.777)" fill="#1c4b18"/>
      <rect id="Rectangle_88" data-name="Rectangle 88" width="19" height="6" transform="translate(78.436 105.777)" fill="#1c4b18"/>
      <rect id="Rectangle_89" data-name="Rectangle 89" width="25" height="6" transform="translate(102.436 105.777)" fill="#1b2904"/>
      <rect id="Rectangle_90" data-name="Rectangle 90" width="22" height="6" transform="translate(106.436 73.777)" fill="#201e67"/>
      <rect id="Rectangle_91" data-name="Rectangle 91" width="25" height="6" transform="translate(133.436 73.777)" fill="#1b2904"/>
      <rect id="Rectangle_92" data-name="Rectangle 92" width="16" height="6" transform="translate(125.436 84.777)" fill="#1c4b18"/>
      <rect id="Rectangle_93" data-name="Rectangle 93" width="25" height="6" transform="translate(145.436 84.777)" fill="#1c4b18"/>
      <rect id="Rectangle_94" data-name="Rectangle 94" width="25" height="6" transform="translate(111.436 41.777)" fill="#1b2904"/>
    </g>
    <path id="Path_168" data-name="Path 168" d="M1115.327,589.08c0,45.782-27.217,61.767-60.79,61.767s-60.79-15.985-60.79-61.767,60.79-104.024,60.79-104.024S1115.327,543.3,1115.327,589.08Z" transform="translate(-3686.116 -681.952)" fill="#3d8f15"/>
    <path id="Path_169" data-name="Path 169" d="M1028.831,621.344l.625-38.316,25.909-47.4-25.809,41.391.28-17.228L1047.69,525.5l-17.782,29.735h0l.5-30.986,19.125-27.3-19.046,22.43.316-56.816-1.974,75.215.158-3.1-19.441-29.758,19.132,35.715-1.816,34.605-.05-.919L1004.4,542.995l22.341,34.561-.223,4.328-.043.065.021.355-4.595,87.8h6.138l.732-45.349,22.291-34.477Z" transform="translate(-3662.628 -659.452)" fill="#3f3d56"/>
  </g>
</svg>
